<svg width="64" height="64" viewBox="0 0 64 64" fill="none" xmlns="http://www.w3.org/2000/svg">
<path d="M0 37.7673L1.67787 25.5403H1.87055L6.67135 35.5729L11.424 25.5403H11.6167L13.3106 37.7673H12.1465L10.9905 29.023L6.81586 37.7673H6.51882L2.28801 28.9565L1.13999 37.7673H0Z" fill="#112227"/>
<path d="M24.1646 28.7238V37.7673H23.0567V36.2129C22.5857 36.8058 22.0559 37.2519 21.4671 37.5512C20.8838 37.8504 20.2442 38 19.5484 38C18.3121 38 17.2551 37.5373 16.3773 36.6119C15.5049 35.6809 15.0687 34.5505 15.0687 33.2206C15.0687 31.9184 15.5103 30.8046 16.3934 29.8792C17.2765 28.9538 18.3389 28.491 19.5805 28.491C20.2977 28.491 20.9453 28.649 21.5233 28.9648C22.1067 29.2807 22.6178 29.7545 23.0567 30.3862V28.7238H24.1646ZM19.6688 29.6132C19.0427 29.6132 18.4646 29.7739 17.9348 30.0953C17.4049 30.4111 16.9821 30.8572 16.6663 31.4335C16.3559 32.0098 16.2007 32.6194 16.2007 33.2621C16.2007 33.8994 16.3586 34.509 16.6744 35.0908C16.9901 35.6726 17.4129 36.127 17.9428 36.454C18.478 36.7754 19.0507 36.9361 19.6608 36.9361C20.2763 36.9361 20.8597 36.7754 21.4109 36.454C21.9622 36.1326 22.385 35.6976 22.6794 35.149C22.9791 34.6004 23.129 33.9825 23.129 33.2954C23.129 32.2481 22.7944 31.3725 22.1254 30.6688C21.4618 29.965 20.6429 29.6132 19.6688 29.6132Z" fill="#112227"/>
<path d="M26.276 28.7238H27.424V30.0454C27.7665 29.5245 28.1278 29.1366 28.5078 28.8817C28.8878 28.6213 29.2838 28.491 29.6959 28.491C30.0064 28.491 30.3382 28.5936 30.6914 28.7986L30.1054 29.7794C29.8699 29.6741 29.6719 29.6215 29.5113 29.6215C29.1366 29.6215 28.7754 29.7822 28.4275 30.1036C28.0796 30.4194 27.8147 30.9126 27.6327 31.5831C27.4936 32.0985 27.424 33.1402 27.424 34.7084V37.7673H26.276V28.7238Z" fill="#112227"/>
<path d="M40.3492 28.7238V37.7673H39.2413V36.2129C38.7704 36.8058 38.2405 37.2519 37.6518 37.5512C37.0684 37.8504 36.4288 38 35.7331 38C34.4967 38 33.4397 37.5373 32.562 36.6119C31.6896 35.6809 31.2534 34.5505 31.2534 33.2206C31.2534 31.9184 31.6949 30.8046 32.578 29.8792C33.4611 28.9538 34.5235 28.491 35.7652 28.491C36.4824 28.491 37.13 28.649 37.708 28.9648C38.2914 29.2807 38.8025 29.7545 39.2413 30.3862V28.7238H40.3492ZM35.8535 29.6132C35.2273 29.6132 34.6493 29.7739 34.1194 30.0953C33.5896 30.4111 33.1668 30.8572 32.851 31.4335C32.5406 32.0098 32.3853 32.6194 32.3853 33.2621C32.3853 33.8994 32.5432 34.509 32.859 35.0908C33.1748 35.6726 33.5976 36.127 34.1274 36.454C34.6627 36.7754 35.2353 36.9361 35.8455 36.9361C36.4609 36.9361 37.0443 36.7754 37.5956 36.454C38.1468 36.1326 38.5697 35.6976 38.864 35.149C39.1637 34.6004 39.3136 33.9825 39.3136 33.2954C39.3136 32.2481 38.9791 31.3725 38.3101 30.6688C37.6464 29.965 36.8276 29.6132 35.8535 29.6132Z" fill="#112227"/>
<path d="M42.0592 28.7238H43.2554L46.1776 35.3069L49.0758 28.7238H50.28L46.282 37.7673H46.0813L42.0592 28.7238Z" fill="#112227"/>
<path d="M52.3994 25C52.6563 25 52.8757 25.0942 53.0577 25.2826C53.2397 25.471 53.3307 25.6982 53.3307 25.9642C53.3307 26.2246 53.2397 26.4491 53.0577 26.6375C52.8757 26.8259 52.6563 26.9201 52.3994 26.9201C52.1479 26.9201 51.9311 26.8259 51.7491 26.6375C51.5672 26.4491 51.4762 26.2246 51.4762 25.9642C51.4762 25.6982 51.5672 25.471 51.7491 25.2826C51.9311 25.0942 52.1479 25 52.3994 25ZM51.8374 28.7238H52.9694V37.7673H51.8374V28.7238Z" fill="#112227"/>
<path d="M64 28.7238V37.7673H62.8921V36.2129C62.4211 36.8058 61.8913 37.2519 61.3026 37.5512C60.7192 37.8504 60.0796 38 59.3838 38C58.1475 38 57.0905 37.5373 56.2127 36.6119C55.3404 35.6809 54.9042 34.5505 54.9042 33.2206C54.9042 31.9184 55.3457 30.8046 56.2288 29.8792C57.1119 28.9538 58.1743 28.491 59.416 28.491C60.1331 28.491 60.7807 28.649 61.3588 28.9648C61.9421 29.2807 62.4533 29.7545 62.8921 30.3862V28.7238H64ZM59.5043 29.6132C58.8781 29.6132 58.3 29.7739 57.7702 30.0953C57.2403 30.4111 56.8175 30.8572 56.5018 31.4335C56.1913 32.0098 56.0361 32.6194 56.0361 33.2621C56.0361 33.8994 56.194 34.509 56.5098 35.0908C56.8256 35.6726 57.2484 36.127 57.7782 36.454C58.3134 36.7754 58.8861 36.9361 59.4962 36.9361C60.1117 36.9361 60.6951 36.7754 61.2464 36.454C61.7976 36.1326 62.2204 35.6976 62.5148 35.149C62.8145 34.6004 62.9644 33.9825 62.9644 33.2954C62.9644 32.2481 62.6299 31.3725 61.9609 30.6688C61.2972 29.965 60.4783 29.6132 59.5043 29.6132Z" fill="#112227"/>
</svg>
