<svg width="129" height="25" viewBox="0 0 129 25" fill="none" xmlns="http://www.w3.org/2000/svg">
<g clip-path="url(#clip0_460_4117)">
<path d="M0.5 24.5524L3.85575 1.039H4.24109L13.8427 20.3325L23.348 1.039H23.7333L27.1212 24.5524H24.793L22.4809 7.73657L14.1317 24.5524H13.5376L5.07602 7.6087L2.77998 24.5524H0.5Z" fill="#112227"/>
<path d="M48.8292 7.16113V24.5524H46.6134V21.5633C45.6714 22.7035 44.6117 23.5614 43.4343 24.1368C42.2675 24.7123 40.9884 25 39.5968 25C37.1242 25 35.0101 24.1102 33.2546 22.3306C31.5099 20.5403 30.6375 18.3664 30.6375 15.8088C30.6375 13.3046 31.5206 11.1626 33.2868 9.38299C35.0529 7.60337 37.1777 6.71355 39.6611 6.71355C41.0954 6.71355 42.3906 7.01726 43.5467 7.62468C44.7134 8.2321 45.7357 9.14322 46.6134 10.3581V7.16113H48.8292ZM39.8377 8.87148C38.5853 8.87148 37.4293 9.18052 36.3695 9.79859C35.3098 10.406 34.4642 11.2639 33.8327 12.3721C33.2118 13.4804 32.9014 14.6526 32.9014 15.8887C32.9014 17.1142 33.2172 18.2864 33.8487 19.4054C34.4803 20.5243 35.3259 21.3981 36.3856 22.0269C37.456 22.6449 38.6014 22.954 39.8216 22.954C41.0526 22.954 42.2194 22.6449 43.3219 22.0269C44.4244 21.4088 45.27 20.5723 45.8588 19.5173C46.4582 18.4623 46.7579 17.2741 46.7579 15.9527C46.7579 13.9386 46.0889 12.2549 44.7509 10.9015C43.4236 9.54817 41.7858 8.87148 39.8377 8.87148Z" fill="#112227"/>
<path d="M53.0519 7.16113H55.348V9.70269C56.033 8.70098 56.7556 7.95503 57.5156 7.46483C58.2755 6.96398 59.0677 6.71355 59.8919 6.71355C60.5127 6.71355 61.1764 6.9107 61.8828 7.30499L60.7107 9.19118C60.2398 8.9887 59.8437 8.88747 59.5226 8.88747C58.7733 8.88747 58.0508 9.1965 57.355 9.81458C56.6592 10.422 56.1294 11.3704 55.7654 12.6598C55.4871 13.6509 55.348 15.6543 55.348 18.6701V24.5524H53.0519V7.16113Z" fill="#112227"/>
<path d="M81.1984 7.16113V24.5524H78.9827V21.5633C78.0407 22.7035 76.981 23.5614 75.8036 24.1368C74.6368 24.7123 73.3577 25 71.9661 25C69.4935 25 67.3794 24.1102 65.6239 22.3306C63.8792 20.5403 63.0068 18.3664 63.0068 15.8088C63.0068 13.3046 63.8899 11.1626 65.656 9.38299C67.4222 7.60337 69.547 6.71355 72.0304 6.71355C73.4647 6.71355 74.7599 7.01726 75.916 7.62468C77.0827 8.2321 78.1049 9.14322 78.9827 10.3581V7.16113H81.1984ZM72.207 8.87148C70.9546 8.87148 69.7985 9.18052 68.7388 9.79859C67.6791 10.406 66.8335 11.2639 66.202 12.3721C65.5811 13.4804 65.2707 14.6526 65.2707 15.8887C65.2707 17.1142 65.5865 18.2864 66.218 19.4054C66.8496 20.5243 67.6952 21.3981 68.7549 22.0269C69.8253 22.6449 70.9706 22.954 72.1909 22.954C73.4219 22.954 74.5886 22.6449 75.6912 22.0269C76.7937 21.4088 77.6393 20.5723 78.2281 19.5173C78.8275 18.4623 79.1272 17.2741 79.1272 15.9527C79.1272 13.9386 78.4582 12.2549 77.1202 10.9015C75.7929 9.54817 74.1551 8.87148 72.207 8.87148Z" fill="#112227"/>
<path d="M84.6184 7.16113H87.0108L92.8552 19.821L98.6515 7.16113H101.06L93.064 24.5524H92.6626L84.6184 7.16113Z" fill="#112227"/>
<path d="M105.299 0C105.813 0 106.251 0.181159 106.615 0.543478C106.979 0.905797 107.161 1.34271 107.161 1.85422C107.161 2.35507 106.979 2.78666 106.615 3.14898C106.251 3.5113 105.813 3.69246 105.299 3.69246C104.796 3.69246 104.362 3.5113 103.998 3.14898C103.634 2.78666 103.452 2.35507 103.452 1.85422C103.452 1.34271 103.634 0.905797 103.998 0.543478C104.362 0.181159 104.796 0 105.299 0ZM104.175 7.16113H106.439V24.5524H104.175V7.16113Z" fill="#112227"/>
<path d="M128.5 7.16113V24.5524H126.284V21.5633C125.342 22.7035 124.283 23.5614 123.105 24.1368C121.938 24.7123 120.659 25 119.268 25C116.795 25 114.681 24.1102 112.925 22.3306C111.181 20.5403 110.308 18.3664 110.308 15.8088C110.308 13.3046 111.191 11.1626 112.958 9.38299C114.724 7.60337 116.849 6.71355 119.332 6.71355C120.766 6.71355 122.061 7.01726 123.218 7.62468C124.384 8.2321 125.407 9.14322 126.284 10.3581V7.16113H128.5ZM119.509 8.87148C118.256 8.87148 117.1 9.18052 116.04 9.79859C114.981 10.406 114.135 11.2639 113.504 12.3721C112.883 13.4804 112.572 14.6526 112.572 15.8887C112.572 17.1142 112.888 18.2864 113.52 19.4054C114.151 20.5243 114.997 21.3981 116.056 22.0269C117.127 22.6449 118.272 22.954 119.492 22.954C120.723 22.954 121.89 22.6449 122.993 22.0269C124.095 21.4088 124.941 20.5723 125.53 19.5173C126.129 18.4623 126.429 17.2741 126.429 15.9527C126.429 13.9386 125.76 12.2549 124.422 10.9015C123.094 9.54817 121.457 8.87148 119.509 8.87148Z" fill="#112227"/>
</g>
<defs>
<clipPath id="clip0_460_4117">
<rect width="128" height="25" fill="white" transform="translate(0.5)"/>
</clipPath>
</defs>
</svg>
