<svg width="40" height="40" viewBox="0 0 40 40" fill="none" xmlns="http://www.w3.org/2000/svg">
<g clip-path="url(#clip0_5038_934)">
<circle cx="20" cy="20" r="20" fill="#112227"/>
<path d="M15.9399 10.333H24.0601C27.1536 10.333 29.667 12.8464 29.667 15.9399V24.0601C29.667 25.5472 29.0763 26.9733 28.0248 28.0248C26.9733 29.0763 25.5472 29.667 24.0601 29.667H15.9399C12.8464 29.667 10.333 27.1536 10.333 24.0601V15.9399C10.333 14.4528 10.9237 13.0267 11.9752 11.9752C13.0267 10.9237 14.4528 10.333 15.9399 10.333ZM15.7465 12.2664C14.8235 12.2664 13.9384 12.6331 13.2857 13.2857C12.6331 13.9384 12.2664 14.8235 12.2664 15.7465V24.2535C12.2664 26.1772 13.8228 27.7336 15.7465 27.7336H24.2535C25.1765 27.7336 26.0616 27.3669 26.7143 26.7143C27.3669 26.0616 27.7336 25.1765 27.7336 24.2535V15.7465C27.7336 13.8228 26.1772 12.2664 24.2535 12.2664H15.7465ZM25.0752 13.7165C25.3957 13.7165 25.703 13.8438 25.9296 14.0704C26.1562 14.297 26.2835 14.6043 26.2835 14.9248C26.2835 15.2453 26.1562 15.5527 25.9296 15.7793C25.703 16.0059 25.3957 16.1332 25.0752 16.1332C24.7547 16.1332 24.4473 16.0059 24.2207 15.7793C23.9941 15.5527 23.8668 15.2453 23.8668 14.9248C23.8668 14.6043 23.9941 14.297 24.2207 14.0704C24.4473 13.8438 24.7547 13.7165 25.0752 13.7165ZM20 15.1665C21.2819 15.1665 22.5113 15.6757 23.4178 16.5822C24.3243 17.4887 24.8335 18.7181 24.8335 20C24.8335 21.2819 24.3243 22.5113 23.4178 23.4178C22.5113 24.3243 21.2819 24.8335 20 24.8335C18.7181 24.8335 17.4887 24.3243 16.5822 23.4178C15.6757 22.5113 15.1665 21.2819 15.1665 20C15.1665 18.7181 15.6757 17.4887 16.5822 16.5822C17.4887 15.6757 18.7181 15.1665 20 15.1665ZM20 17.0999C19.2308 17.0999 18.4932 17.4054 17.9493 17.9493C17.4054 18.4932 17.0999 19.2308 17.0999 20C17.0999 20.7692 17.4054 21.5068 17.9493 22.0507C18.4932 22.5946 19.2308 22.9001 20 22.9001C20.7692 22.9001 21.5068 22.5946 22.0507 22.0507C22.5946 21.5068 22.9001 20.7692 22.9001 20C22.9001 19.2308 22.5946 18.4932 22.0507 17.9493C21.5068 17.4054 20.7692 17.0999 20 17.0999Z" fill="#C3DEE5"/>
</g>
<defs>
<clipPath id="clip0_5038_934">
<rect width="40" height="40" fill="white"/>
</clipPath>
</defs>
</svg>
