<svg width="120" height="120" viewBox="0 0 120 120" fill="none" xmlns="http://www.w3.org/2000/svg">
<path d="M60 10C50.111 10 40.444 12.9324 32.2215 18.4265C23.9991 23.9206 17.5904 31.7295 13.806 40.8658C10.0217 50.0021 9.0315 60.0555 10.9608 69.7545C12.89 79.4536 17.6521 88.3627 24.6447 95.3553C31.6373 102.348 40.5465 107.11 50.2455 109.039C59.9446 110.969 69.9979 109.978 79.1342 106.194C88.2705 102.41 96.0794 96.001 101.573 87.7785C107.068 79.5561 110 69.8891 110 60C110 53.4339 108.707 46.9321 106.194 40.8658C103.681 34.7995 99.9983 29.2876 95.3554 24.6447C90.7124 20.0017 85.2005 16.3188 79.1342 13.806C73.0679 11.2933 66.5661 10 60 10ZM50 82.5V37.5L80 60L50 82.5Z" fill="#F6F6F6"/>
</svg>
